<svg width="106" height="101" viewBox="0 0 106 101" fill="none" xmlns="http://www.w3.org/2000/svg">
<path d="M53.2856 88.784H72.4856V85.424C60.5816 85.232 56.5496 82.544 56.5496 75.056C56.5496 72.848 56.7416 70.688 57.1736 68.48C56.6456 68.528 56.1176 68.528 55.5896 68.576L55.1096 58.304C70.4696 56.528 87.4616 56.528 102.822 58.304L102.342 68.576C88.2776 67.616 81.2696 67.328 71.7176 67.664C71.4776 68.864 71.3816 69.824 71.3816 71.216C71.3816 73.712 72.1496 74.384 74.8856 74.384C83.2856 74.384 96.2936 73.952 102.822 73.616L103.302 84.416C99.2696 84.704 92.8376 84.992 86.4056 85.184V88.784H105.606V99.344H53.2856V88.784Z" fill="white"/>
<path d="M36.72 56H50.4V100.544H36.72V56ZM0.720001 98.288C0.720001 79.616 1.584 72.848 4.272 67.376H0.960001V57.056H34.512V67.376H17.376C16.8 68.576 16.368 69.728 15.936 70.928C18.528 70.352 21.12 70.016 23.328 70.016C31.872 70.016 34.752 73.472 34.752 83.792V98.288L22.272 98.768V84.32C22.272 81.824 21.36 80.96 18.576 80.96C17.424 80.96 15.6 81.152 13.776 81.632C13.344 86.048 13.2 91.472 13.2 98.768L0.720001 98.288Z" fill="white"/>
<path d="M89.5256 0H102.486V14.832H105.846V26.832H102.486V44.544H89.5256V0ZM53.5256 26.688V16.368H73.0136C73.3976 15.12 73.5896 13.968 73.5896 13.104C73.5896 11.856 72.8216 11.28 71.1896 11.28C68.0216 11.28 65.9576 11.376 54.9656 12L54.4856 1.872C60.1016 1.2 67.0136 0.816001 72.2456 0.816001C83.1896 0.816001 86.5496 2.928 86.5496 9.84C86.5496 11.808 86.3096 14.016 85.7816 16.368H87.0296V26.688H67.8776C67.7336 27.6 67.6856 28.464 67.6856 29.28C67.6856 31.488 68.2136 32.016 70.5176 32.016C73.9256 32.016 78.5336 31.68 87.5096 30.912L87.9896 41.088C81.6056 42.144 74.8376 42.768 69.2696 42.768C58.7576 42.768 54.4856 39.936 54.4856 33.024C54.4856 31.008 54.6776 28.8 55.0616 26.688H53.5256Z" fill="white"/>
<path d="M2.64 29.952H48.24V44.544H2.64V29.952ZM0 1.296C11.424 0.288002 22.128 0.288002 33.552 1.296L33.072 9.12C26.928 8.64 21.168 8.4 15.36 8.448C15.216 9.216 15.072 9.984 14.976 10.704H32.592V17.52H14.4C14.448 19.392 15.216 19.92 17.472 19.92C21.936 19.92 26.784 19.68 33.552 19.2L34.032 27.6C28.464 28.176 21.888 28.512 16.704 28.512C5.328 28.512 1.44 26.016 1.44 18.624C1.44 15.456 1.776 12.384 2.496 8.976L0.48 9.12L0 1.296ZM15.6 38.304H35.28V35.952H15.6V38.304ZM36 28.752V0H48.72V9.12H52.08V20.4H48.72V28.752H36Z" fill="white"/>
</svg>
